<svg width="25" height="24" viewBox="0 0 25 24" fill="none" xmlns="http://www.w3.org/2000/svg">
<path d="M3.83331 6.25C3.83331 4.45507 5.28839 3 7.08331 3H16.0833C17.8782 3 19.3333 4.45507 19.3333 6.25V15.25C19.3333 15.8963 19.1447 16.4985 18.8195 17.0046L13.1274 11.6292C12.2603 10.8103 10.9049 10.8103 10.0377 11.6292L4.34661 17.0037C4.02174 16.4978 3.83331 15.8959 3.83331 15.25V6.25ZM14.5805 8.99633C15.2698 8.99633 15.8287 8.43751 15.8287 7.74817C15.8287 7.05882 15.2698 6.5 14.5805 6.5C13.8912 6.5 13.3323 7.05882 13.3323 7.74817C13.3323 8.43751 13.8912 8.99633 14.5805 8.99633ZM12.0975 12.7198L17.7389 18.0473C17.254 18.3349 16.6879 18.5 16.0833 18.5H7.08331C6.4783 18.5 5.91191 18.3347 5.42683 18.0468L11.0676 12.7198C11.3567 12.4468 11.8085 12.4468 12.0975 12.7198ZM9.58229 21.0002C8.4316 21.0002 7.42059 20.4022 6.84308 19.5H9.55678L9.58229 19.5002H16.5823C18.6534 19.5002 20.3323 17.8212 20.3323 15.7502V6.01108C21.2344 6.58861 21.8323 7.59957 21.8323 8.75017V15.7502C21.8323 18.6497 19.4818 21.0002 16.5823 21.0002H9.58229Z" fill="#1F2328"/>
</svg>
