<svg width="25" height="24" viewBox="0 0 25 24" fill="none" xmlns="http://www.w3.org/2000/svg">
<path d="M14.5815 8.99633C15.2708 8.99633 15.8296 8.43751 15.8296 7.74817C15.8296 7.05882 15.2708 6.5 14.5815 6.5C13.8921 6.5 13.3333 7.05882 13.3333 7.74817C13.3333 8.43751 13.8921 8.99633 14.5815 8.99633ZM7.08331 3C5.28839 3 3.83331 4.45507 3.83331 6.25V15.25C3.83331 17.0449 5.28839 18.5 7.08331 18.5H16.0833C17.8782 18.5 19.3333 17.0449 19.3333 15.25V6.25C19.3333 4.45507 17.8782 3 16.0833 3H7.08331ZM5.33331 6.25C5.33331 5.2835 6.11681 4.5 7.08331 4.5H16.0833C17.0498 4.5 17.8333 5.2835 17.8333 6.25V15.25C17.8333 15.4812 17.7885 15.7018 17.7071 15.9038L13.12 11.6128C12.255 10.8036 10.9108 10.8036 10.0458 11.6128L5.45933 15.9033C5.37805 15.7015 5.33331 15.481 5.33331 15.25V6.25ZM12.0953 12.7082L16.6002 16.9224C16.4368 16.9728 16.2632 17 16.0833 17H7.08331C6.90317 17 6.72938 16.9728 6.56584 16.9222L11.0706 12.7082C11.3589 12.4385 11.807 12.4385 12.0953 12.7082ZM9.58326 21.0002C8.43258 21.0002 7.42157 20.4022 6.84406 19.5H9.55775L9.58326 19.5002H16.5833C18.6543 19.5002 20.3333 17.8212 20.3333 15.7502V6.01108C21.2353 6.58861 21.8333 7.59956 21.8333 8.75017V15.7502C21.8333 18.6497 19.4828 21.0002 16.5833 21.0002H9.58326Z" fill="#788B98"/>
</svg>
