<svg width="25" height="24" viewBox="0 0 25 24" fill="none" xmlns="http://www.w3.org/2000/svg">
<path d="M13.9508 2.53318C13.1128 1.82618 11.8872 1.82618 11.0492 2.53318L4.29916 8.22772C3.79241 8.65523 3.5 9.28447 3.5 9.94747V19.2526C3.5 20.2191 4.2835 21.0026 5.25 21.0026H8.25C9.2165 21.0026 10 20.2191 10 19.2526V15.25C10 14.5707 10.5418 14.018 11.2169 14.0004H13.7831C14.4582 14.018 15 14.5707 15 15.25V19.2526C15 20.2191 15.7835 21.0026 16.75 21.0026H19.75C20.7165 21.0026 21.5 20.2191 21.5 19.2526V9.94747C21.5 9.28447 21.2076 8.65523 20.7008 8.22772L13.9508 2.53318Z" fill="#1F2328"/>
</svg>
