<svg width="25" height="24" viewBox="0 0 25 24" fill="none" xmlns="http://www.w3.org/2000/svg">
<path d="M3.16663 5.25C3.16663 4.00736 4.17399 3 5.41663 3H14.9166C16.1593 3 17.1666 4.00736 17.1666 5.25V14H21.1666V17.75C21.1666 19.5449 19.7116 21 17.9166 21H6.41663C4.6217 21 3.16663 19.5449 3.16663 17.75V5.25ZM17.1666 19.5H17.9166C18.8831 19.5 19.6666 18.7165 19.6666 17.75V15.5H17.1666V19.5ZM6.66663 7.75C6.66663 8.16421 7.00241 8.5 7.41663 8.5H12.9166C13.3308 8.5 13.6666 8.16421 13.6666 7.75C13.6666 7.33579 13.3308 7 12.9166 7H7.41663C7.00241 7 6.66663 7.33579 6.66663 7.75ZM7.41663 11C7.00241 11 6.66663 11.3358 6.66663 11.75C6.66663 12.1642 7.00241 12.5 7.41663 12.5H12.9166C13.3308 12.5 13.6666 12.1642 13.6666 11.75C13.6666 11.3358 13.3308 11 12.9166 11H7.41663ZM6.66663 15.75C6.66663 16.1642 7.00241 16.5 7.41663 16.5H10.4166C10.8308 16.5 11.1666 16.1642 11.1666 15.75C11.1666 15.3358 10.8308 15 10.4166 15H7.41663C7.00241 15 6.66663 15.3358 6.66663 15.75Z" fill="#1F2328"/>
</svg>
