<svg width="25" height="24" viewBox="0 0 25 24" fill="none" xmlns="http://www.w3.org/2000/svg">
<path d="M3.16663 5.25C3.16663 4.00736 4.17399 3 5.41663 3H14.9166C16.1593 3 17.1666 4.00736 17.1666 5.25V14H21.1666V17.75C21.1666 19.5449 19.7116 21 17.9166 21H6.41663C4.6217 21 3.16663 19.5449 3.16663 17.75V5.25ZM17.1666 19.5H17.9166C18.8831 19.5 19.6666 18.7165 19.6666 17.75V15.5H17.1666V19.5ZM5.41663 4.5C5.00241 4.5 4.66663 4.83579 4.66663 5.25V17.75C4.66663 18.7165 5.45013 19.5 6.41663 19.5H15.6666V5.25C15.6666 4.83579 15.3308 4.5 14.9166 4.5H5.41663ZM7.41663 7C7.00241 7 6.66663 7.33579 6.66663 7.75C6.66663 8.16421 7.00241 8.5 7.41663 8.5H12.9166C13.3308 8.5 13.6666 8.16421 13.6666 7.75C13.6666 7.33579 13.3308 7 12.9166 7H7.41663ZM6.66663 11.75C6.66663 11.3358 7.00241 11 7.41663 11H12.9166C13.3308 11 13.6666 11.3358 13.6666 11.75C13.6666 12.1642 13.3308 12.5 12.9166 12.5H7.41663C7.00241 12.5 6.66663 12.1642 6.66663 11.75ZM7.41663 15C7.00241 15 6.66663 15.3358 6.66663 15.75C6.66663 16.1642 7.00241 16.5 7.41663 16.5H10.4166C10.8308 16.5 11.1666 16.1642 11.1666 15.75C11.1666 15.3358 10.8308 15 10.4166 15H7.41663Z" fill="#788B98"/>
</svg>
